<svg width="34" height="32" viewBox="0 0 34 32" fill="none" xmlns="http://www.w3.org/2000/svg">
<path d="M11.2274 26.3258C10.2365 26.1637 9.23768 25.7741 8.61508 24.881C7.58543 23.3673 7.98088 21.2956 9.50378 20.2787C11.0211 19.227 13.08 19.6317 14.1097 21.1454C14.6918 22.0093 14.6838 23.0253 14.5381 23.9849C14.2427 25.7905 13.9517 27.8454 16.9462 28.3354C17.3866 28.4074 17.7962 28.5988 18.1108 28.9555C18.777 29.7201 18.6777 30.8795 17.9259 31.5365C17.1613 32.2026 16.0019 32.1034 15.3449 31.3516C15.0395 31.0077 14.8969 30.5661 14.9085 30.1497C14.8881 28.8238 14.0365 26.7741 11.2274 26.3258Z" fill="#002735"/>
<path d="M12.5515 12.3589C12.9098 12.7817 13.1901 13.3031 13.132 13.9013C13.0228 14.9061 12.1148 15.6351 11.1107 15.5173C10.0965 15.416 9.37623 14.5088 9.48543 13.504C9.55013 12.9325 9.91723 12.5084 10.322 12.1572C11.0926 11.5042 11.9506 10.7448 10.8676 9.46675C10.7083 9.2788 10.6047 9.05175 10.6002 8.78918C10.594 8.22933 11.0508 7.77764 11.602 7.77072C12.1618 7.76453 12.6135 8.22134 12.6204 8.77251C12.6257 9.0264 12.5275 9.263 12.3735 9.43382C11.9074 9.99837 11.5314 11.1647 12.5515 12.3589Z" fill="#002735"/>
<path d="M22.4266 19.6876C22.5485 20.1878 22.5646 20.7373 22.2676 21.21C21.7593 21.9992 20.7022 22.2274 19.9172 21.7121C19.1169 21.2065 18.8957 20.1535 19.404 19.3644C19.6952 18.9166 20.1765 18.7169 20.6586 18.5935C21.5701 18.3714 22.5984 18.0973 22.23 16.5856C22.1759 16.3633 22.1842 16.1317 22.2896 15.9117C22.5171 15.4442 23.0843 15.2589 23.5449 15.4822C24.0125 15.7097 24.1978 16.2769 23.9745 16.7376C23.8733 16.9506 23.6934 17.1063 23.4945 17.1842C22.8727 17.4594 22.0757 18.2718 22.4266 19.6876Z" fill="#002735"/>
<path fill-rule="evenodd" clip-rule="evenodd" d="M17.2676 19.662C16.2045 19.9206 15.193 19.5496 14.3388 19.0125C11.9246 17.4815 9.9196 18.4589 9.0221 19.4441C8.9474 19.5336 8.8624 19.6166 8.7687 19.691C8.3267 20.1292 7.7838 20.467 7.11961 20.5391C5.64194 20.6826 4.32185 19.5949 4.19104 18.1157C4.03326 16.6269 5.12251 15.3195 6.60018 15.176C7.44138 15.0981 8.1612 15.4992 8.7872 15.9763C9.8918 16.8384 11.1562 17.7843 12.5686 16.2529C12.8738 15.8815 13.1439 15.4578 13.4022 15.0469C13.9308 14.2271 14.6007 13.4565 15.6139 13.193C17.3964 12.7378 19.2166 13.8026 19.6598 15.6042C20.1304 17.3832 19.0501 19.2069 17.2676 19.662Z" fill="#002735"/>
<path d="M6.5262 5.16107C5.99977 4.78235 5.53411 4.26983 5.43092 3.57425C5.27071 2.4027 6.09525 1.31825 7.26844 1.16809C8.44844 0.99618 9.52284 1.82236 9.68304 2.99391C9.77124 3.66096 9.47444 4.24629 9.11414 4.75938C8.42404 5.71864 7.66478 6.82342 9.25574 7.96797C9.48974 8.13629 9.67154 8.36474 9.75094 8.66153C9.91634 9.29533 9.52554 9.93735 8.90174 10.101C8.26794 10.2664 7.62598 9.8756 7.46224 9.25185C7.38447 8.96512 7.42903 8.66875 7.55547 8.43129C7.92494 7.65858 8.02194 6.22824 6.5262 5.16107Z" fill="#002735"/>
<path d="M28.1153 5.77597C27.4827 5.84202 26.8074 5.77044 26.2782 5.32839C25.3967 4.57499 25.2931 3.24305 26.0543 2.36786C26.8062 1.47232 28.1319 1.37652 29.0134 2.12991C29.513 2.56085 29.6775 3.18308 29.7484 3.79378C29.8687 4.94636 30.0333 6.25062 31.9449 6.05101C32.226 6.02165 32.5082 6.07034 32.7599 6.23587C33.2944 6.59212 33.427 7.31716 33.077 7.84391C32.7208 8.37843 31.9958 8.51098 31.469 8.16102C31.225 8.00178 31.0643 7.75569 31.0021 7.49933C30.7686 6.69247 29.9066 5.58181 28.1153 5.77597Z" fill="#002735"/>
<path d="M28.5942 10.3845C27.985 10.567 27.3082 10.6223 26.7059 10.2864C25.6997 9.71002 25.3502 8.42057 25.9353 7.41909C26.5076 6.39933 27.7923 6.05865 28.7985 6.63496C29.3696 6.96544 29.6469 7.54624 29.8302 8.1331C30.1628 9.24319 30.5671 10.4941 32.4082 9.94247C32.6789 9.8613 32.9652 9.85666 33.2434 9.97247C33.8348 10.2231 34.0999 10.9109 33.854 11.4935C33.6034 12.085 32.9157 12.3501 32.333 12.1042C32.0637 11.9931 31.86 11.7812 31.7511 11.5409C31.3717 10.7915 30.3182 9.8605 28.5942 10.3845Z" fill="#002735"/>
<path d="M0.0309429 14.0429C-0.121827 12.9832 0.607113 12.0022 1.65931 11.8352C2.25914 11.7445 2.79927 12.005 3.26158 12.3251C3.65425 12.6 4.06872 12.8817 4.50048 12.9898C4.50048 12.9898 4.50048 12.9898 4.51138 12.9932C5.17627 13.1964 5.88786 12.8181 6.09112 12.1532C6.27106 11.5646 6.00986 10.7815 4.85753 10.2624C4.2947 9.95915 3.55137 9.93455 2.85163 9.92325C2.09407 9.90621 1.32623 9.76683 0.760403 9.20054C-0.248637 8.21272 -0.253267 6.5904 0.745453 5.58469C1.74417 4.57898 3.35559 4.57102 4.36131 5.56974C4.9565 6.15692 5.11384 6.9678 5.09011 7.74716C5.04046 9.93685 6.45918 10.8712 7.46591 11.0479C7.79529 11.1009 8.09899 11.2772 8.31149 11.5567C8.79529 12.1575 8.70219 13.0467 8.09809 13.5414C7.71989 13.8429 7.23147 13.9201 6.79548 13.7868C6.73008 13.7668 6.66468 13.7468 6.59171 13.7126C5.89808 13.3694 4.60581 13.3081 3.65215 14.6732C3.31448 15.154 2.86024 15.5872 2.22438 15.6789C1.17552 15.835 0.183703 15.1027 0.0309429 14.0429Z" fill="#002735"/>
<path d="M22.8437 22.7396C22.1015 22.389 21.2185 22.7023 20.8592 23.4358C20.6577 23.855 20.7269 24.3094 20.8574 24.7203C20.9705 25.07 21.0836 25.4371 21.0656 25.7779C21.0656 25.7779 21.0656 25.7779 21.0656 25.7866C21.0649 26.3196 20.6274 26.7559 20.0944 26.7551C19.6225 26.7545 19.1075 26.3868 18.9865 25.4254C18.8911 24.9447 19.0404 24.3944 19.1897 23.8791C19.3477 23.3201 19.4185 22.726 19.1309 22.1839C18.6342 21.222 17.4463 20.8534 16.4844 21.3588C15.5226 21.8643 15.1539 23.0434 15.6594 24.0052C15.9557 24.5736 16.5145 24.8715 17.091 25.0296C18.7068 25.4862 19.0721 26.7362 18.9749 27.5138C18.9396 27.7671 19.0004 28.0293 19.1573 28.248C19.4887 28.7378 20.1613 28.8698 20.6598 28.5385C20.966 28.3292 21.1325 27.9886 21.1329 27.6391C21.133 27.5867 21.1331 27.5343 21.1244 27.4731C21.0291 26.8875 21.2751 25.9267 22.4903 25.5352C22.9186 25.396 23.3384 25.1606 23.5487 24.7153C23.8992 23.9818 23.5859 23.0901 22.8437 22.7396Z" fill="#002735"/>
<path d="M14.9445 7.60701C14.9701 8.45872 15.6893 9.13583 16.541 9.11019C17.295 9.08749 18.1011 8.47626 18.2503 6.93451C18.3808 6.16195 18.1169 5.28947 17.8548 4.47283C17.5766 3.5868 17.4363 2.64071 17.871 1.76117C18.6206 0.201342 20.5018 -0.442247 22.0621 0.321337C23.6223 1.08492 24.2655 2.9522 23.5019 4.51245C23.0545 5.4343 22.1752 5.93592 21.2613 6.21499C18.7001 7.0188 18.1737 9.03308 18.3647 10.2712C18.4328 10.6744 18.3477 11.0962 18.1068 11.4528C17.5998 12.2507 16.531 12.4925 15.7192 11.9859C15.2204 11.6655 14.9387 11.129 14.9219 10.5705C14.9194 10.4867 14.9169 10.4029 14.9279 10.3047C15.2706 7.73598 14.8229 8.69358 14.9445 7.60701Z" fill="#002735"/>
<path d="M12.3202 3.23145C13.3489 2.70897 14.6021 3.1136 15.1365 4.12969C15.4366 4.71047 15.3576 5.35182 15.1908 5.93436C15.046 6.43023 14.9021 6.95064 14.9411 7.42869C14.9411 7.42869 14.9411 7.4287 14.9414 7.44097C14.964 8.18985 15.3595 8.61373 15.3595 8.61373C15.3595 8.61373 16.589 10.7974 14.9336 10.2913C15.0439 9.46463 14.6526 7.64627 12.9295 7.14519C12.3221 6.96688 11.7229 6.65315 11.4094 6.03591C10.8873 5.01946 11.2915 3.75393 12.3202 3.23145Z" fill="#002735"/>
<path d="M23.7349 21.1515C22.8574 20.0015 23.0721 18.3645 24.2038 17.4752C24.8518 16.9734 25.6605 16.9254 26.4166 16.9989C27.0609 17.065 27.7353 17.1246 28.3159 16.9682C28.3159 16.9682 28.3159 16.9682 28.3309 16.9649C29.2492 16.7673 29.8399 15.8526 29.6422 14.9344C29.4673 14.1215 28.6439 13.3694 26.9426 13.515C26.0791 13.5276 25.1858 13.9877 24.3527 14.4347C23.4476 14.913 22.4499 15.2538 21.4097 14.9579C19.5691 14.4562 18.4962 12.545 19.013 10.7012C19.5297 8.85738 21.4258 7.78776 23.2696 8.30448C24.3583 8.60572 25.0774 9.45898 25.5622 10.3942C26.9443 13.0106 29.2331 13.1796 30.5372 12.7257C30.9608 12.5715 31.4351 12.5797 31.8697 12.7696C32.8358 13.1603 33.3111 14.2708 32.9237 15.2519C32.6758 15.8566 32.1503 16.2689 31.5482 16.3985C31.4578 16.418 31.3675 16.4374 31.2589 16.445C30.2147 16.4965 28.6495 17.2744 28.4225 19.5126C28.3403 20.3021 28.0894 21.1121 27.3994 21.6386C26.2645 22.5129 24.6125 22.3014 23.7349 21.1515Z" fill="#002735"/>
</svg>
